<svg xmlns="http://www.w3.org/2000/svg" width="375" viewBox="0 0 375 375" height="375" version="1.0"><defs><clipPath id="a"><path d="M 125.4375 142.136719 L 183.1875 142.136719 L 183.1875 189.386719 L 125.4375 189.386719 Z M 125.4375 142.136719"/></clipPath><clipPath id="b"><path d="M 191.921875 142.136719 L 249.554688 142.136719 L 249.554688 189.386719 L 191.921875 189.386719 Z M 191.921875 142.136719"/></clipPath><clipPath id="c"><path d="M 181 154 L 193 154 L 193 189 L 181 189 Z M 181 154"/></clipPath><clipPath id="d"><path d="M 169.3125 167.242188 L 191.230469 154.210938 L 204.261719 176.132812 L 182.34375 189.164062 Z M 169.3125 167.242188"/></clipPath><clipPath id="e"><path d="M 169.3125 167.242188 L 191.230469 154.210938 L 204.261719 176.132812 L 182.34375 189.164062 Z M 169.3125 167.242188"/></clipPath></defs><path fill="#CC1517" d="M 151.710938 158.730469 C 151.710938 159.0625 151.648438 159.382812 151.519531 159.6875 C 151.394531 159.996094 151.214844 160.265625 150.980469 160.5 C 150.746094 160.734375 150.476562 160.917969 150.171875 161.042969 C 149.867188 161.171875 149.546875 161.234375 149.21875 161.234375 C 148.886719 161.234375 148.570312 161.171875 148.261719 161.042969 C 147.957031 160.917969 147.6875 160.734375 147.453125 160.5 C 147.222656 160.265625 147.039062 159.996094 146.914062 159.6875 C 146.789062 159.382812 146.722656 159.0625 146.722656 158.730469 C 146.722656 158.398438 146.789062 158.078125 146.914062 157.773438 C 147.039062 157.464844 147.222656 157.195312 147.453125 156.960938 C 147.6875 156.726562 147.957031 156.546875 148.261719 156.417969 C 148.570312 156.292969 148.886719 156.226562 149.21875 156.226562 C 149.546875 156.226562 149.867188 156.292969 150.171875 156.417969 C 150.476562 156.546875 150.746094 156.726562 150.980469 156.960938 C 151.214844 157.195312 151.394531 157.464844 151.519531 157.773438 C 151.648438 158.078125 151.710938 158.398438 151.710938 158.730469 Z M 151.710938 158.730469"/><g clip-path="url(#a)"><path d="M 181.496094 176.582031 L 162.277344 169.917969 L 181.34375 164.347656 C 182.453125 163.933594 183.191406 162.871094 183.191406 161.683594 C 183.191406 159.707031 181.230469 158.335938 179.382812 159.019531 L 172.195312 161.210938 C 169.945312 150.324219 160.234375 142.148438 148.695312 142.328125 C 135.734375 142.527344 125.4375 153.386719 125.4375 166.402344 L 125.4375 186.519531 C 125.4375 188.089844 126.703125 189.359375 128.261719 189.359375 C 129.824219 189.359375 131.089844 188.089844 131.089844 186.523438 L 131.089844 166.367188 C 131.089844 156.269531 139.320312 147.832031 149.375 148.003906 C 158.066406 148.15625 165.273438 154.527344 166.753906 162.867188 L 156.773438 165.90625 C 153.285156 167.199219 153.140625 172.101562 156.546875 173.597656 L 167.035156 177.382812 L 167.035156 186.226562 C 167.035156 187.957031 168.300781 189.359375 169.859375 189.359375 C 171.421875 189.359375 172.6875 187.957031 172.6875 186.226562 L 172.6875 179.425781 L 179.226562 181.785156 C 181.097656 182.609375 183.1875 181.234375 183.1875 179.1875 C 183.191406 178.054688 182.527344 177.035156 181.496094 176.582031 Z M 181.496094 176.582031"/></g><path fill="#CC1517" d="M 223.28125 158.730469 C 223.28125 159.0625 223.34375 159.382812 223.472656 159.6875 C 223.597656 159.996094 223.777344 160.265625 224.011719 160.5 C 224.246094 160.734375 224.515625 160.917969 224.820312 161.042969 C 225.125 161.171875 225.445312 161.234375 225.773438 161.234375 C 226.105469 161.234375 226.421875 161.171875 226.726562 161.042969 C 227.035156 160.917969 227.304688 160.734375 227.535156 160.5 C 227.769531 160.265625 227.949219 159.996094 228.078125 159.6875 C 228.203125 159.382812 228.265625 159.0625 228.265625 158.730469 C 228.265625 158.398438 228.203125 158.078125 228.078125 157.773438 C 227.949219 157.464844 227.769531 157.195312 227.535156 156.960938 C 227.304688 156.726562 227.035156 156.546875 226.726562 156.417969 C 226.421875 156.292969 226.105469 156.226562 225.773438 156.226562 C 225.445312 156.226562 225.125 156.292969 224.820312 156.417969 C 224.515625 156.546875 224.246094 156.726562 224.011719 156.960938 C 223.777344 157.195312 223.597656 157.464844 223.472656 157.773438 C 223.34375 158.078125 223.28125 158.398438 223.28125 158.730469 Z M 223.28125 158.730469"/><g clip-path="url(#b)"><path d="M 193.496094 176.582031 L 212.710938 169.917969 L 193.648438 164.347656 C 192.539062 163.933594 191.800781 162.871094 191.800781 161.683594 C 191.800781 159.707031 193.761719 158.335938 195.605469 159.019531 L 202.792969 161.210938 C 205.046875 150.324219 214.753906 142.148438 226.292969 142.328125 C 239.257812 142.527344 249.554688 153.386719 249.554688 166.402344 L 249.554688 186.519531 C 249.554688 188.089844 248.289062 189.359375 246.726562 189.359375 C 245.167969 189.359375 243.902344 188.089844 243.902344 186.523438 L 243.902344 166.367188 C 243.902344 156.269531 235.671875 147.832031 225.617188 148.003906 C 216.925781 148.15625 209.71875 154.527344 208.234375 162.867188 L 218.21875 165.90625 C 221.707031 167.199219 221.851562 172.101562 218.441406 173.597656 L 207.957031 177.382812 L 207.957031 186.226562 C 207.957031 187.957031 206.691406 189.359375 205.132812 189.359375 C 203.570312 189.359375 202.304688 187.957031 202.304688 186.226562 L 202.304688 179.425781 L 195.761719 181.785156 C 193.894531 182.609375 191.804688 181.234375 191.804688 179.1875 C 191.800781 178.054688 192.464844 177.035156 193.496094 176.582031 Z M 193.496094 176.582031"/></g><g clip-path="url(#c)"><g clip-path="url(#d)"><g clip-path="url(#e)"><path fill="#CC1517" d="M 182.535156 188.40625 C 182.355469 188.363281 182.191406 188.285156 182.042969 188.171875 C 181.894531 188.0625 181.773438 187.925781 181.679688 187.765625 C 181.582031 187.605469 181.523438 187.433594 181.496094 187.25 C 181.46875 187.066406 181.480469 186.886719 181.523438 186.703125 L 189.335938 155.980469 C 189.378906 155.796875 189.457031 155.628906 189.566406 155.476562 C 189.679688 155.324219 189.8125 155.199219 189.972656 155.101562 C 190.136719 155.003906 190.308594 154.941406 190.496094 154.914062 C 190.679688 154.886719 190.863281 154.898438 191.046875 154.941406 C 191.226562 154.988281 191.394531 155.070312 191.542969 155.183594 C 191.695312 155.296875 191.816406 155.433594 191.910156 155.59375 C 192.007812 155.757812 192.066406 155.933594 192.089844 156.117188 C 192.113281 156.304688 192.101562 156.488281 192.050781 156.667969 L 184.238281 187.394531 C 184.195312 187.574219 184.117188 187.738281 184.003906 187.886719 C 183.894531 188.039062 183.757812 188.160156 183.597656 188.253906 C 183.4375 188.347656 183.265625 188.410156 183.082031 188.4375 C 182.898438 188.464844 182.714844 188.453125 182.535156 188.40625 Z M 182.535156 188.40625"/></g></g></g><g><g><g><path d="M 15.109375 -5.140625 C 15.972656 -5.140625 16.8125 -5.269531 17.625 -5.53125 C 18.445312 -5.800781 19.050781 -6.054688 19.4375 -6.296875 L 20 -6.6875 L 22.421875 -1.84375 C 22.347656 -1.78125 22.238281 -1.695312 22.09375 -1.59375 C 21.945312 -1.5 21.617188 -1.316406 21.109375 -1.046875 C 20.597656 -0.773438 20.046875 -0.535156 19.453125 -0.328125 C 18.867188 -0.128906 18.101562 0.046875 17.15625 0.203125 C 16.207031 0.367188 15.226562 0.453125 14.21875 0.453125 C 11.90625 0.453125 9.707031 -0.113281 7.625 -1.25 C 5.550781 -2.394531 3.878906 -3.960938 2.609375 -5.953125 C 1.335938 -7.953125 0.703125 -10.113281 0.703125 -12.4375 C 0.703125 -14.195312 1.070312 -15.882812 1.8125 -17.5 C 2.5625 -19.113281 3.554688 -20.492188 4.796875 -21.640625 C 6.035156 -22.785156 7.484375 -23.703125 9.140625 -24.390625 C 10.796875 -25.078125 12.488281 -25.421875 14.21875 -25.421875 C 15.832031 -25.421875 17.320312 -25.226562 18.6875 -24.84375 C 20.050781 -24.457031 21.015625 -24.078125 21.578125 -23.703125 L 22.421875 -23.125 L 20 -18.28125 C 19.863281 -18.40625 19.65625 -18.550781 19.375 -18.71875 C 19.09375 -18.882812 18.523438 -19.109375 17.671875 -19.390625 C 16.828125 -19.679688 15.972656 -19.828125 15.109375 -19.828125 C 13.734375 -19.828125 12.5 -19.601562 11.40625 -19.15625 C 10.320312 -18.71875 9.460938 -18.132812 8.828125 -17.40625 C 8.191406 -16.675781 7.707031 -15.890625 7.375 -15.046875 C 7.039062 -14.210938 6.875 -13.363281 6.875 -12.5 C 6.875 -10.601562 7.582031 -8.898438 9 -7.390625 C 10.425781 -5.890625 12.460938 -5.140625 15.109375 -5.140625 Z M 15.109375 -5.140625" transform="translate(96.277 223.138)"/></g></g></g><g><g><g><path d="M 1.8125 0 L 1.8125 -26.03125 L 7.171875 -26.03125 L 7.171875 -13.890625 L 7.234375 -13.890625 C 8.628906 -15.285156 10.113281 -15.984375 11.6875 -15.984375 C 12.445312 -15.984375 13.207031 -15.878906 13.96875 -15.671875 C 14.726562 -15.472656 15.453125 -15.160156 16.140625 -14.734375 C 16.835938 -14.316406 17.40625 -13.71875 17.84375 -12.9375 C 18.28125 -12.15625 18.5 -11.253906 18.5 -10.234375 L 18.5 0 L 13.140625 0 L 13.140625 -8.78125 C 13.140625 -9.582031 12.878906 -10.285156 12.359375 -10.890625 C 11.847656 -11.492188 11.175781 -11.796875 10.34375 -11.796875 C 9.539062 -11.796875 8.8125 -11.484375 8.15625 -10.859375 C 7.5 -10.234375 7.171875 -9.539062 7.171875 -8.78125 L 7.171875 0 Z M 1.8125 0" transform="translate(117.881 223.138)"/></g></g></g><g><g><g><path d="M 2.875 -1.921875 C 1.425781 -3.503906 0.703125 -5.445312 0.703125 -7.75 C 0.703125 -10.050781 1.425781 -12 2.875 -13.59375 C 4.320312 -15.1875 6.164062 -15.984375 8.40625 -15.984375 C 10.46875 -15.984375 12.164062 -15.335938 13.5 -14.046875 L 13.5 -15.53125 L 18.859375 -15.53125 L 18.859375 0 L 13.5625 0 L 13.5625 -1.75 L 13.5 -1.75 C 12.164062 -0.28125 10.46875 0.453125 8.40625 0.453125 C 6.164062 0.453125 4.320312 -0.335938 2.875 -1.921875 Z M 7.421875 -10.375 C 6.734375 -9.695312 6.390625 -8.820312 6.390625 -7.75 C 6.390625 -6.675781 6.722656 -5.800781 7.390625 -5.125 C 8.054688 -4.445312 8.929688 -4.109375 10.015625 -4.109375 C 11.066406 -4.109375 11.929688 -4.453125 12.609375 -5.140625 C 13.285156 -5.828125 13.625 -6.695312 13.625 -7.75 C 13.625 -8.820312 13.273438 -9.695312 12.578125 -10.375 C 11.878906 -11.0625 11.023438 -11.40625 10.015625 -11.40625 C 8.984375 -11.40625 8.117188 -11.0625 7.421875 -10.375 Z M 7.421875 -10.375" transform="translate(136.701 223.138)"/></g></g></g><g><g><g><path d="M 1.8125 0 L 1.8125 -15.53125 L 7.171875 -15.53125 L 7.171875 -13.890625 L 7.234375 -13.890625 C 8.628906 -15.285156 10.113281 -15.984375 11.6875 -15.984375 C 12.445312 -15.984375 13.207031 -15.878906 13.96875 -15.671875 C 14.726562 -15.472656 15.453125 -15.160156 16.140625 -14.734375 C 16.835938 -14.316406 17.40625 -13.71875 17.84375 -12.9375 C 18.28125 -12.15625 18.5 -11.253906 18.5 -10.234375 L 18.5 0 L 13.140625 0 L 13.140625 -8.78125 C 13.140625 -9.582031 12.878906 -10.285156 12.359375 -10.890625 C 11.847656 -11.492188 11.175781 -11.796875 10.34375 -11.796875 C 9.539062 -11.796875 8.8125 -11.484375 8.15625 -10.859375 C 7.5 -10.234375 7.171875 -9.539062 7.171875 -8.78125 L 7.171875 0 Z M 1.8125 0" transform="translate(156.187 223.138)"/></g></g></g><g><g><g><path d="M 16.828125 -15.53125 L 9.140625 -4.078125 L 16.21875 -4.078125 L 16.21875 0 L 0.15625 0 L 7.84375 -11.4375 L 1.421875 -11.4375 L 1.421875 -15.53125 Z M 16.828125 -15.53125" transform="translate(175.007 223.138)"/></g></g></g><g><g><g><path d="M 3.28125 -1.84375 C 1.5625 -3.375 0.703125 -5.335938 0.703125 -7.734375 C 0.703125 -10.140625 1.597656 -12.113281 3.390625 -13.65625 C 5.179688 -15.207031 7.398438 -15.984375 10.046875 -15.984375 C 12.648438 -15.984375 14.84375 -15.203125 16.625 -13.640625 C 18.414062 -12.085938 19.3125 -10.117188 19.3125 -7.734375 C 19.3125 -5.359375 18.4375 -3.398438 16.6875 -1.859375 C 14.945312 -0.316406 12.734375 0.453125 10.046875 0.453125 C 7.265625 0.453125 5.007812 -0.3125 3.28125 -1.84375 Z M 7.421875 -10.375 C 6.734375 -9.695312 6.390625 -8.820312 6.390625 -7.75 C 6.390625 -6.675781 6.722656 -5.800781 7.390625 -5.125 C 8.054688 -4.445312 8.929688 -4.109375 10.015625 -4.109375 C 11.066406 -4.109375 11.929688 -4.453125 12.609375 -5.140625 C 13.285156 -5.828125 13.625 -6.695312 13.625 -7.75 C 13.625 -8.820312 13.273438 -9.695312 12.578125 -10.375 C 11.878906 -11.0625 11.023438 -11.40625 10.015625 -11.40625 C 8.984375 -11.40625 8.117188 -11.0625 7.421875 -10.375 Z M 7.421875 -10.375" transform="translate(190.801 223.138)"/></g></g></g><g><g><g><path d="M 7.5 -10.015625 L 7.5 0 L 1.8125 0 L 1.8125 -24.96875 L 7.5 -24.96875 L 7.5 -15.015625 L 15.5625 -15.015625 L 15.5625 -24.96875 L 21.25 -24.96875 L 21.25 0 L 15.5625 0 L 15.5625 -10.015625 Z M 7.5 -10.015625" transform="translate(209.622 223.138)"/></g></g></g><g><g><g><path d="M 6.875 -15.53125 L 6.875 -8.140625 C 6.875 -6.609375 7.101562 -5.519531 7.5625 -4.875 C 8.03125 -4.226562 8.816406 -3.90625 9.921875 -3.90625 C 11.035156 -3.90625 11.820312 -4.226562 12.28125 -4.875 C 12.75 -5.519531 12.984375 -6.609375 12.984375 -8.140625 L 12.984375 -15.53125 L 18.34375 -15.53125 L 18.34375 -6.84375 C 18.34375 -4.257812 17.671875 -2.394531 16.328125 -1.25 C 14.984375 -0.113281 12.847656 0.453125 9.921875 0.453125 C 6.992188 0.453125 4.859375 -0.113281 3.515625 -1.25 C 2.179688 -2.394531 1.515625 -4.257812 1.515625 -6.84375 L 1.515625 -15.53125 Z M 6.875 -15.53125" transform="translate(231.498 223.138)"/></g></g></g><g><g><g><path d="M 1.8125 0 L 1.8125 -15.53125 L 7.171875 -15.53125 L 7.171875 -13.28125 L 7.234375 -13.28125 C 7.273438 -13.363281 7.335938 -13.460938 7.421875 -13.578125 C 7.515625 -13.703125 7.710938 -13.914062 8.015625 -14.21875 C 8.316406 -14.519531 8.640625 -14.789062 8.984375 -15.03125 C 9.328125 -15.28125 9.769531 -15.5 10.3125 -15.6875 C 10.863281 -15.882812 11.421875 -15.984375 11.984375 -15.984375 C 12.566406 -15.984375 13.140625 -15.898438 13.703125 -15.734375 C 14.273438 -15.578125 14.691406 -15.414062 14.953125 -15.25 L 15.375 -15.015625 L 13.140625 -10.46875 C 12.472656 -11.03125 11.539062 -11.3125 10.34375 -11.3125 C 9.695312 -11.3125 9.140625 -11.171875 8.671875 -10.890625 C 8.210938 -10.609375 7.890625 -10.265625 7.703125 -9.859375 C 7.515625 -9.460938 7.378906 -9.117188 7.296875 -8.828125 C 7.210938 -8.546875 7.171875 -8.328125 7.171875 -8.171875 L 7.171875 0 Z M 1.8125 0" transform="translate(250.167 223.138)"/></g></g></g><g><g><g><path d="M 6.875 -15.53125 L 6.875 -8.140625 C 6.875 -6.609375 7.101562 -5.519531 7.5625 -4.875 C 8.03125 -4.226562 8.816406 -3.90625 9.921875 -3.90625 C 11.035156 -3.90625 11.820312 -4.226562 12.28125 -4.875 C 12.75 -5.519531 12.984375 -6.609375 12.984375 -8.140625 L 12.984375 -15.53125 L 18.34375 -15.53125 L 18.34375 -6.84375 C 18.34375 -4.257812 17.671875 -2.394531 16.328125 -1.25 C 14.984375 -0.113281 12.847656 0.453125 9.921875 0.453125 C 6.992188 0.453125 4.859375 -0.113281 3.515625 -1.25 C 2.179688 -2.394531 1.515625 -4.257812 1.515625 -6.84375 L 1.515625 -15.53125 Z M 6.875 -15.53125" transform="translate(264.055 223.138)"/></g></g></g></svg>