<svg xmlns="http://www.w3.org/2000/svg" width="375" viewBox="0 0 375 375" height="375" version="1.0"><defs><clipPath id="a"><path d="M 125.4375 164.011719 L 183.1875 164.011719 L 183.1875 211.261719 L 125.4375 211.261719 Z M 125.4375 164.011719"/></clipPath><clipPath id="b"><path d="M 191.921875 164.011719 L 249.554688 164.011719 L 249.554688 211.261719 L 191.921875 211.261719 Z M 191.921875 164.011719"/></clipPath><clipPath id="c"><path d="M 181 176 L 193 176 L 193 211 L 181 211 Z M 181 176"/></clipPath><clipPath id="d"><path d="M 169.3125 189.117188 L 191.230469 176.085938 L 204.261719 198.003906 L 182.34375 211.035156 Z M 169.3125 189.117188"/></clipPath><clipPath id="e"><path d="M 169.3125 189.117188 L 191.230469 176.085938 L 204.261719 198.003906 L 182.34375 211.035156 Z M 169.3125 189.117188"/></clipPath></defs><path fill="#CC1517" d="M 151.710938 180.605469 C 151.710938 180.9375 151.648438 181.253906 151.519531 181.5625 C 151.394531 181.867188 151.214844 182.140625 150.980469 182.375 C 150.746094 182.609375 150.476562 182.789062 150.171875 182.917969 C 149.867188 183.042969 149.546875 183.105469 149.21875 183.105469 C 148.886719 183.105469 148.570312 183.042969 148.261719 182.917969 C 147.957031 182.789062 147.6875 182.609375 147.453125 182.375 C 147.222656 182.140625 147.039062 181.867188 146.914062 181.5625 C 146.789062 181.253906 146.722656 180.9375 146.722656 180.605469 C 146.722656 180.273438 146.789062 179.953125 146.914062 179.644531 C 147.039062 179.339844 147.222656 179.070312 147.453125 178.832031 C 147.6875 178.597656 147.957031 178.417969 148.261719 178.292969 C 148.570312 178.164062 148.886719 178.101562 149.21875 178.101562 C 149.546875 178.101562 149.867188 178.164062 150.171875 178.292969 C 150.476562 178.417969 150.746094 178.597656 150.980469 178.832031 C 151.214844 179.070312 151.394531 179.339844 151.519531 179.644531 C 151.648438 179.953125 151.710938 180.273438 151.710938 180.605469 Z M 151.710938 180.605469"/><g clip-path="url(#a)"><path d="M 181.496094 198.457031 L 162.277344 191.789062 L 181.34375 186.21875 C 182.453125 185.808594 183.191406 184.746094 183.191406 183.554688 C 183.191406 181.582031 181.230469 180.210938 179.382812 180.894531 L 172.195312 183.082031 C 169.945312 172.199219 160.234375 164.023438 148.695312 164.199219 C 135.734375 164.398438 125.4375 175.261719 125.4375 188.277344 L 125.4375 208.394531 C 125.4375 209.960938 126.703125 211.230469 128.261719 211.230469 C 129.824219 211.230469 131.089844 209.960938 131.089844 208.394531 L 131.089844 188.238281 C 131.089844 178.140625 139.320312 169.703125 149.375 169.878906 C 158.066406 170.027344 165.273438 176.402344 166.753906 184.738281 L 156.773438 187.777344 C 153.285156 189.074219 153.140625 193.972656 156.546875 195.46875 L 167.035156 199.257812 L 167.035156 208.101562 C 167.035156 209.832031 168.300781 211.234375 169.859375 211.234375 C 171.421875 211.234375 172.6875 209.832031 172.6875 208.101562 L 172.6875 201.296875 L 179.226562 203.660156 C 181.097656 204.480469 183.1875 203.105469 183.1875 201.058594 C 183.191406 199.929688 182.527344 198.910156 181.496094 198.457031 Z M 181.496094 198.457031"/></g><path fill="#CC1517" d="M 223.28125 180.605469 C 223.28125 180.9375 223.34375 181.253906 223.472656 181.5625 C 223.597656 181.867188 223.777344 182.140625 224.011719 182.375 C 224.246094 182.609375 224.515625 182.789062 224.820312 182.917969 C 225.125 183.042969 225.445312 183.105469 225.773438 183.105469 C 226.105469 183.105469 226.421875 183.042969 226.726562 182.917969 C 227.035156 182.789062 227.304688 182.609375 227.535156 182.375 C 227.769531 182.140625 227.949219 181.867188 228.078125 181.5625 C 228.203125 181.253906 228.265625 180.9375 228.265625 180.605469 C 228.265625 180.273438 228.203125 179.953125 228.078125 179.644531 C 227.949219 179.339844 227.769531 179.070312 227.535156 178.832031 C 227.304688 178.597656 227.035156 178.417969 226.726562 178.292969 C 226.421875 178.164062 226.105469 178.101562 225.773438 178.101562 C 225.445312 178.101562 225.125 178.164062 224.820312 178.292969 C 224.515625 178.417969 224.246094 178.597656 224.011719 178.832031 C 223.777344 179.070312 223.597656 179.339844 223.472656 179.644531 C 223.34375 179.953125 223.28125 180.273438 223.28125 180.605469 Z M 223.28125 180.605469"/><g clip-path="url(#b)"><path d="M 193.496094 198.457031 L 212.710938 191.789062 L 193.648438 186.21875 C 192.539062 185.808594 191.800781 184.746094 191.800781 183.554688 C 191.800781 181.582031 193.761719 180.210938 195.605469 180.894531 L 202.792969 183.082031 C 205.046875 172.199219 214.753906 164.023438 226.292969 164.199219 C 239.257812 164.398438 249.554688 175.261719 249.554688 188.277344 L 249.554688 208.394531 C 249.554688 209.960938 248.289062 211.230469 246.726562 211.230469 C 245.167969 211.230469 243.902344 209.960938 243.902344 208.394531 L 243.902344 188.238281 C 243.902344 178.140625 235.671875 169.703125 225.617188 169.878906 C 216.925781 170.027344 209.71875 176.402344 208.234375 184.738281 L 218.21875 187.777344 C 221.707031 189.074219 221.851562 193.972656 218.441406 195.46875 L 207.957031 199.257812 L 207.957031 208.101562 C 207.957031 209.832031 206.691406 211.234375 205.132812 211.234375 C 203.570312 211.234375 202.304688 209.832031 202.304688 208.101562 L 202.304688 201.296875 L 195.761719 203.660156 C 193.894531 204.480469 191.804688 203.105469 191.804688 201.058594 C 191.800781 199.929688 192.464844 198.910156 193.496094 198.457031 Z M 193.496094 198.457031"/></g><g clip-path="url(#c)"><g clip-path="url(#d)"><g clip-path="url(#e)"><path fill="#CC1517" d="M 182.535156 210.28125 C 182.355469 210.234375 182.191406 210.15625 182.042969 210.046875 C 181.894531 209.933594 181.773438 209.796875 181.679688 209.640625 C 181.582031 209.480469 181.523438 209.308594 181.496094 209.125 C 181.46875 208.941406 181.480469 208.757812 181.523438 208.578125 L 189.335938 177.851562 C 189.378906 177.667969 189.457031 177.5 189.566406 177.351562 C 189.679688 177.199219 189.8125 177.074219 189.972656 176.976562 C 190.136719 176.878906 190.308594 176.816406 190.496094 176.789062 C 190.679688 176.761719 190.863281 176.769531 191.046875 176.816406 C 191.226562 176.863281 191.394531 176.941406 191.542969 177.054688 C 191.695312 177.167969 191.816406 177.304688 191.910156 177.46875 C 192.007812 177.628906 192.066406 177.804688 192.089844 177.992188 C 192.113281 178.175781 192.101562 178.363281 192.050781 178.542969 L 184.238281 209.269531 C 184.195312 209.449219 184.117188 209.613281 184.003906 209.761719 C 183.894531 209.910156 183.757812 210.03125 183.597656 210.128906 C 183.4375 210.222656 183.265625 210.28125 183.082031 210.308594 C 182.898438 210.335938 182.714844 210.328125 182.535156 210.28125 Z M 182.535156 210.28125"/></g></g></g></svg>